<?xml version="1.0" encoding="UTF-8"?>
<!-- Generator: visioncortex VTracer 0.6.12 -->
<svg version="1.1" xmlns="http://www.w3.org/2000/svg" width="128" height="128">
<path d="M0 0 C42.24 0 84.48 0 128 0 C128 42.24 128 84.48 128 128 C85.76 128 43.52 128 0 128 C0 85.76 0 43.52 0 0 Z " fill="#FAFBFB" transform="translate(0,0)"/>
<path d="M0 0 C4.459 0.104 6.424 1.828 9.523 4.863 C11.39 6.571 13.226 7.661 15.438 8.875 C22.732 13.31 25.264 21.384 27.875 29.125 C30.5 36.873 33.017 43.999 40.312 48.5 C43.183 49.42 46.053 50.185 48.984 50.887 C51.312 51.5 51.312 51.5 52.312 52.5 C52.625 56.659 52.591 60.831 52.625 65 C52.64 65.58 52.64 65.58 52.713 68.516 C52.775 76.907 51.507 83.004 46.625 89.875 C38.589 95.522 28.755 95.164 19.312 95.5 C17.662 90.88 16.013 86.26 14.312 81.5 C13.653 82.82 12.993 84.14 12.312 85.5 C9.937 85.625 9.937 85.625 7.312 85.5 C5.312 83.5 5.312 83.5 4.938 80.688 C5.312 77.5 5.312 77.5 7.438 75 C9.312 72.5 9.312 72.5 8.938 69.75 C5.507 62.889 2.536 57.18 -4.785 54.074 C-7.16 53.357 -9.227 53.192 -11.688 53.5 C-11.06 54.446 -10.432 55.392 -9.785 56.367 C-7.176 60.943 -6.692 65.454 -6.125 70.625 C-5.11 78.75 -3.762 86.569 -1.688 94.5 C-2.678 94.17 -3.667 93.84 -4.688 93.5 C-5.855 90.918 -5.855 90.918 -6.875 87.688 C-7.219 86.629 -7.563 85.571 -7.918 84.48 C-8.688 81.5 -8.688 81.5 -8.688 77.5 C-11.211 77.935 -12.419 78.209 -14.188 80.125 C-14.682 80.579 -15.178 81.032 -15.688 81.5 C-17.875 81.188 -17.875 81.188 -19.688 80.5 C-20.629 76.497 -21.125 74.338 -19.188 70.625 C-16.044 67.953 -13.746 67.734 -9.688 67.5 C-10.306 65.706 -10.932 63.915 -11.562 62.125 C-11.911 61.127 -12.259 60.13 -12.617 59.102 C-13.688 56.5 -13.688 56.5 -15.688 54.5 C-19.178 54.206 -22.627 54.085 -26.127 54.021 C-33.354 53.762 -39.498 51.83 -44.688 46.5 C-49.427 39.499 -49.685 31.709 -48.688 23.5 C-47 19.875 -47 19.875 -44.688 17.5 C-44.007 16.799 -43.326 16.097 -42.625 15.375 C-38.278 12.6 -33.565 11.108 -28.688 9.5 C-24.681 8.165 -23.93 5.972 -21.688 2.5 C-18.878 1.095 -16.799 1.251 -13.688 1.5 C-11.312 3 -11.312 3 -9.688 4.5 C-0.063 0.009 -0.063 0.009 0 0 Z " fill="#81C595" transform="translate(62.6875,16.5)"/>
<path d="M0 0 C4.459 0.104 6.424 1.828 9.523 4.863 C11.39 6.571 13.226 7.661 15.438 8.875 C22.732 13.31 25.264 21.384 27.875 29.125 C30.5 36.873 33.017 43.999 40.312 48.5 C43.937 49.693 47.595 50.641 51.312 51.5 C51.312 52.49 51.312 53.48 51.312 54.5 C43.771 54.261 38.992 52.545 33.312 47.5 C28.011 41.842 25.908 34.872 23.491 27.68 C20.741 19.578 17.968 13.773 10.312 9.5 C9.983 10.16 9.653 10.82 9.312 11.5 C9.021 11.006 8.73 10.513 8.43 10.004 C5.061 4.74 5.061 4.74 1.188 3.5 C-1.688 3.5 -1.688 3.5 -4.688 4.5 C-5.75 6.75 -5.75 6.75 -6.688 9.5 C-8.354 14.278 -8.354 14.278 -11.688 16.5 C-12.162 17.366 -12.636 18.233 -13.125 19.125 C-13.641 19.909 -14.156 20.692 -14.688 21.5 C-16.008 21.5 -17.328 21.5 -18.688 21.5 C-19.375 18.687 -19.375 18.687 -19.688 15.5 C-18.207 13.801 -18.207 13.801 -16.688 12.5 C-25.875 11.888 -34.314 13.82 -41.688 19.5 C-42.347 19.5 -43.008 19.5 -43.688 19.5 C-46.63 26.007 -46.747 33.062 -44.562 39.875 C-42.577 44.502 -39.173 47.257 -34.688 49.5 C-31.653 49.791 -28.609 49.778 -25.562 49.812 C-24.732 49.842 -23.902 49.871 -23.047 49.9 C-16.857 49.963 -13.029 48.627 -7.688 45.5 C-7.688 47.48 -7.688 49.46 -7.688 51.5 C-6.986 51.583 -6.285 51.665 -5.562 51.75 C1.156 53.503 4.494 57.599 8.055 63.238 C9.538 65.906 10.555 68.544 11.312 71.5 C18.062 68.75 18.062 68.75 20.312 66.5 C20.125 68.312 20.125 68.312 19.312 70.5 C16.786 72.325 14.532 73.43 11.562 74.375 C9.312 75.5 9.312 75.5 8.438 78 C8.312 80.5 8.312 80.5 9.312 82.5 C9.972 82.5 10.632 82.5 11.312 82.5 C11.377 81.881 11.441 81.263 11.508 80.625 C12.312 78.5 12.312 78.5 14.492 77.375 C15.382 77.086 16.271 76.797 17.188 76.5 C21.267 75.168 22.874 74.005 25.312 70.5 C25.972 70.5 26.632 70.5 27.312 70.5 C26.348 76.646 26.348 76.646 23.398 79.078 C21.404 80.305 19.403 81.445 17.312 82.5 C17.541 83.031 17.769 83.562 18.004 84.109 C18.291 84.816 18.579 85.522 18.875 86.25 C19.02 86.598 19.02 86.598 19.754 88.359 C20.312 90.5 20.312 90.5 19.312 94.5 C17.662 90.21 16.013 85.92 14.312 81.5 C13.653 82.82 12.993 84.14 12.312 85.5 C9.937 85.625 9.937 85.625 7.312 85.5 C5.312 83.5 5.312 83.5 4.938 80.688 C5.312 77.5 5.312 77.5 7.438 75 C9.312 72.5 9.312 72.5 8.938 69.75 C5.507 62.889 2.536 57.18 -4.785 54.074 C-7.16 53.357 -9.227 53.192 -11.688 53.5 C-11.06 54.446 -10.432 55.392 -9.785 56.367 C-7.176 60.943 -6.692 65.454 -6.125 70.625 C-5.11 78.75 -3.762 86.569 -1.688 94.5 C-2.678 94.17 -3.667 93.84 -4.688 93.5 C-5.855 90.918 -5.855 90.918 -6.875 87.688 C-7.219 86.629 -7.563 85.571 -7.918 84.48 C-8.688 81.5 -8.688 81.5 -8.688 77.5 C-11.211 77.935 -12.419 78.209 -14.188 80.125 C-14.682 80.579 -15.178 81.032 -15.688 81.5 C-17.875 81.188 -17.875 81.188 -19.688 80.5 C-20.629 76.497 -21.125 74.338 -19.188 70.625 C-16.044 67.953 -13.746 67.734 -9.688 67.5 C-10.306 65.706 -10.932 63.915 -11.562 62.125 C-11.911 61.127 -12.259 60.13 -12.617 59.102 C-13.688 56.5 -13.688 56.5 -15.688 54.5 C-19.178 54.206 -22.627 54.085 -26.127 54.021 C-33.354 53.762 -39.498 51.83 -44.688 46.5 C-49.427 39.499 -49.685 31.709 -48.688 23.5 C-47 19.875 -47 19.875 -44.688 17.5 C-44.007 16.799 -43.326 16.097 -42.625 15.375 C-38.278 12.6 -33.565 11.108 -28.688 9.5 C-24.681 8.165 -23.93 5.972 -21.688 2.5 C-18.878 1.095 -16.799 1.251 -13.688 1.5 C-11.312 3 -11.312 3 -9.688 4.5 C-0.063 0.009 -0.063 0.009 0 0 Z " fill="#253144" transform="translate(62.6875,16.5)"/>
<path d="M0 0 C6.051 0.338 10.285 0.809 15 5 C18.471 9.379 22.233 14.377 23 20 C21.719 21.707 20.382 23.374 19 25 C18.75 28.312 18.75 28.312 19 31 C20.98 31.66 22.96 32.32 25 33 C25.33 31.35 25.66 29.7 26 28 C28.63 30.291 29.656 32.248 30.688 35.562 C30.939 36.348 31.19 37.133 31.449 37.941 C32 40 32 40 32 42 C24.08 42.33 16.16 42.66 8 43 C8.33 42.34 8.66 41.68 9 41 C9.66 41.33 10.32 41.66 11 42 C10.873 41.653 10.873 41.653 10.23 39.895 C7.495 31.811 6.117 23.987 5.216 15.513 C4.504 9.543 2.97 5.24 0 0 Z " fill="#DCE2C5" transform="translate(50,69)"/>
<path d="M0 0 C2.688 0.125 2.688 0.125 6 1 C7.691 2.98 9.358 4.979 11 7 C13.812 7.875 13.812 7.875 16 8 C16 11.38 15.125 13.835 14 17 C13.67 15.68 13.34 14.36 13 13 C11.68 12.67 10.36 12.34 9 12 C8.794 12.784 8.588 13.568 8.375 14.375 C7 17 7 17 4.062 18.375 C1 19 1 19 -2 18 C-2 16.68 -2 15.36 -2 14 C-2.66 13.67 -3.32 13.34 -4 13 C-3.34 12.01 -2.68 11.02 -2 10 C-2.66 10.33 -2.66 10.33 -6 12 C-4.883 8.984 -3.387 7.355 -0.938 5.375 C2 3 2 3 3 1 C2.01 0.67 1.02 0.34 0 0 Z " fill="#7DBF91" transform="translate(61,19)"/>
<path d="M0 0 C7.154 -0.617 7.154 -0.617 11 2.188 C11.473 2.649 11.946 3.11 12.434 3.586 C14.688 5.621 17.285 6.91 19.973 8.301 C25.797 13.183 28.205 20.636 30.562 27.625 C33.188 35.373 35.705 42.499 43 47 C46.625 48.193 50.283 49.141 54 50 C54 50.99 54 51.98 54 53 C46.458 52.761 41.679 51.045 36 46 C30.698 40.342 28.595 33.372 26.179 26.18 C23.428 18.078 20.655 12.273 13 8 C12.67 8.66 12.34 9.32 12 10 C11.319 8.886 10.639 7.773 9.938 6.625 C7.1 2.588 4.773 1.842 0 1 C0 0.67 0 0.34 0 0 Z " fill="#252D46" transform="translate(60,18)"/>
<path d="M0 0 C0.33 0.99 0.66 1.98 1 3 C1.66 3 2.32 3 3 3 C3.11 4.076 3.219 5.153 3.332 6.262 C4.306 15.376 5.682 24.116 8 33 C7.505 32.835 7.505 32.835 5 32 C3.832 29.418 3.832 29.418 2.812 26.188 C2.468 25.129 2.124 24.071 1.77 22.98 C1 20 1 20 1 16 C-1.523 16.435 -2.732 16.709 -4.5 18.625 C-4.748 18.852 -4.748 18.852 -6 20 C-8.188 19.688 -8.188 19.688 -10 19 C-10.942 14.997 -11.437 12.838 -9.5 9.125 C-6.357 6.453 -4.059 6.234 0 6 C0 4.02 0 2.04 0 0 Z " fill="#252A44" transform="translate(53,78)"/>
<path d="M0 0 C0.69 0.482 1.379 0.964 2.09 1.461 C8.08 5.487 12.848 7.945 20 9 C20.33 8.34 20.66 7.68 21 7 C20.67 10.63 20.34 14.26 20 18 C18.35 17.67 16.7 17.34 15 17 C14.618 15.344 14.286 13.675 14 12 C14.33 11.67 14.66 11.34 15 11 C14.34 10.67 13.68 10.34 13 10 C13 11.65 13 13.3 13 15 C12.34 15 11.68 15 11 15 C11.33 17.31 11.66 19.62 12 22 C10.35 22.33 8.7 22.66 7 23 C7.248 22.093 7.495 21.185 7.75 20.25 C8 17 8 17 6.312 14.875 C4.814 13.66 3.294 12.47 1.75 11.312 C-0.921 7.783 -0.329 4.277 0 0 Z " fill="#7EC2A0" transform="translate(94,62)"/>
<path d="M0 0 C5.18 1.884 6.418 6.021 8.672 10.734 C10.441 15.085 11.404 19.354 12 24 C9.831 23.494 8 23 6 22 C6 21.01 6 20.02 6 19 C4.35 19.33 2.7 19.66 1 20 C0.67 18.68 0.34 17.36 0 16 C1.32 15.34 2.64 14.68 4 14 C3.639 13.481 3.278 12.961 2.906 12.426 C-1.793 5.363 -1.793 5.363 -1 1 C-0.67 0.67 -0.34 0.34 0 0 Z " fill="#7BBCA7" transform="translate(77,29)"/>
<path d="M0 0 C2.125 0.375 2.125 0.375 4 1 C2.625 2.5 2.625 2.5 1 4 C0.34 4 -0.32 4 -1 4 C-3.943 10.507 -4.06 17.562 -1.875 24.375 C0.208 29.17 3.567 31.827 8.27 34.094 C11.497 35.165 14.422 35.42 17.812 35.625 C18.974 35.7 20.135 35.775 21.332 35.852 C22.212 35.901 23.093 35.95 24 36 C24 36.33 24 36.66 24 37 C14.615 38.877 8.565 38.365 0.312 33.375 C-4.969 27.951 -6.271 22.282 -6.5 14.812 C-6.301 7.728 -4.93 4.93 0 0 Z " fill="#1F243F" transform="translate(20,32)"/>
<path d="M0 0 C1.629 0.424 3.253 0.864 4.875 1.312 C5.78 1.556 6.685 1.8 7.617 2.051 C10 3 10 3 12 6 C11.655 6.055 11.655 6.055 9.91 6.332 C2.796 7.532 -3.719 9.377 -10.453 11.93 C-10.853 12.075 -10.853 12.075 -12.875 12.812 C-13.235 12.95 -13.235 12.95 -15.055 13.645 C-17 14 -17 14 -20 12 C-18.459 11.373 -16.917 10.748 -15.375 10.125 C-14.462 9.754 -13.55 9.383 -12.609 9 C-10 8 -10 8 -6.625 7.125 C-3.041 5.589 -1.881 3.327 0 0 Z " fill="#222843" transform="translate(41,19)"/>
<path d="M0 0 C7.154 -0.617 7.154 -0.617 11 2.188 C11.473 2.649 11.946 3.11 12.434 3.586 C14.189 5.171 15.992 6.175 18.062 7.312 C23.258 10.501 26.022 14.701 27.746 20.516 C28.238 22.672 28.661 24.815 29 27 C28.34 27 27.68 27 27 27 C26.553 26.036 26.105 25.072 25.645 24.078 C25.035 22.802 24.424 21.526 23.812 20.25 C23.521 19.616 23.229 18.982 22.928 18.328 C20.586 13.493 17.915 10.458 13 8 C12.67 8.66 12.34 9.32 12 10 C11.319 8.886 10.639 7.773 9.938 6.625 C7.1 2.588 4.773 1.842 0 1 C0 0.67 0 0.34 0 0 Z " fill="#1F2742" transform="translate(60,18)"/>
<path d="M0 0 C1.821 1.068 3.632 2.155 5.438 3.25 C6.447 3.853 7.456 4.457 8.496 5.078 C11 7 11 7 11.973 9.047 C12 11 12 11 10 14 C7.688 14.5 7.688 14.5 5 14 C2.188 12.062 2.188 12.062 0 9 C-0.408 5.952 -0.3 3.055 0 0 Z " fill="#6FAACF" transform="translate(94,62)"/>
<path d="M0 0 C-2.508 3.272 -4.501 4.278 -8.438 5 C-12.561 5.768 -15.013 6.919 -18 10 C-19.012 13.035 -19.166 15.197 -19.188 18.375 C-19.202 19.311 -19.216 20.247 -19.23 21.211 C-19 24 -19 24 -17.926 26.664 C-17 29 -17 29 -18 32 C-22.2 25.427 -22.598 19.716 -22 12 C-20.17 6.74 -15.744 4.471 -11 2 C-7.164 0.42 -4.142 -0.244 0 0 Z " fill="#A4CFB0" transform="translate(38,29)"/>
<path d="M0 0 C0 3 0 3 -2 5.188 C-2.66 5.786 -3.32 6.384 -4 7 C-3.814 7.266 -3.814 7.266 -2.871 8.609 C-2.398 9.316 -1.925 10.022 -1.438 10.75 C-0.962 11.446 -0.486 12.142 0.004 12.859 C1 15 1 15 0.652 17.266 C0.437 17.838 0.222 18.41 0 19 C-0.66 19 -1.32 19 -2 19 C-2.193 18.446 -2.387 17.891 -2.586 17.32 C-2.716 16.958 -2.716 16.958 -3.375 15.125 C-3.63 14.406 -3.885 13.686 -4.148 12.945 C-5 11 -5 11 -7 9 C-9.164 8.586 -9.164 8.586 -11.625 8.375 C-12.034 8.338 -12.034 8.338 -14.102 8.148 C-14.728 8.099 -15.355 8.05 -16 8 C-16 7.67 -16 7.34 -16 7 C-18.31 6.67 -20.62 6.34 -23 6 C-23 5.67 -23 5.34 -23 5 C-22.463 4.987 -22.463 4.987 -19.746 4.922 C-5.703 4.42 -5.703 4.42 0 0 Z " fill="#343E50" transform="translate(54,62)"/>
<path d="M0 0 C3.3 0 6.6 0 10 0 C10.33 1.32 10.66 2.64 11 4 C10.01 4.66 9.02 5.32 8 6 C7.526 6.866 7.051 7.733 6.562 8.625 C6.047 9.409 5.531 10.193 5 11 C3.68 11 2.36 11 1 11 C0.312 8.188 0.312 8.188 0 5 C1.438 3.125 1.438 3.125 3 2 C2.01 1.34 1.02 0.68 0 0 Z " fill="#79B48F" transform="translate(43,27)"/>
<path d="M0 0 C3.648 1.437 4.973 3.077 6.812 6.5 C7.252 7.294 7.692 8.088 8.145 8.906 C8.286 9.252 8.286 9.252 9 11 C8.67 11.66 8.34 12.32 8 13 C5.75 12.875 5.75 12.875 3 12 C0.519 9.049 -0.884 7.048 -1.312 3.188 C-1 1 -1 1 0 0 Z " fill="#6DA8CA" transform="translate(77,29)"/>
<path d="M0 0 C11.22 0 22.44 0 34 0 C33.67 0.66 33.34 1.32 33 2 C31.031 2.295 29.059 2.582 27.078 2.781 C24.681 3.034 22.354 3.485 20 4 C20 3.34 20 2.68 20 2 C13.4 1.67 6.8 1.34 0 1 C0 0.67 0 0.34 0 0 Z " fill="#EAF1E5" transform="translate(62,111)"/>
<path d="M0 0 C0.33 1.32 0.66 2.64 1 4 C1.701 4.082 2.403 4.165 3.125 4.25 C9.822 5.997 13.13 10.052 16.676 15.672 C18.403 18.708 19.751 21.74 21 25 C20.34 25 19.68 25 19 25 C18.553 24.108 18.105 23.216 17.645 22.297 C17.04 21.126 16.435 19.956 15.812 18.75 C15.221 17.59 14.629 16.43 14.02 15.234 C10.999 10.397 7.426 7.679 2 6 C-0.326 5.619 -2.659 5.275 -5 5 C-3.35 3.35 -1.7 1.7 0 0 Z " fill="#425656" transform="translate(54,64)"/>
<path d="M0 0 C0.33 0.66 0.66 1.32 1 2 C-1.808 4.964 -4.183 7.445 -8 9 C-7.886 9.266 -7.886 9.266 -7.309 10.609 C-7.165 10.963 -7.165 10.963 -6.438 12.75 C-6.147 13.446 -5.857 14.142 -5.559 14.859 C-5 17 -5 17 -6 21 C-7.65 16.38 -9.3 11.76 -11 7 C-8.359 4.359 -5.413 3.463 -2 2 C-1.34 1.34 -0.68 0.68 0 0 Z " fill="#4D7263" transform="translate(88,90)"/>
<path d="M0 0 C0 1.65 0 3.3 0 5 C-1.65 5 -3.3 5 -5 5 C-5.33 5.99 -5.66 6.98 -6 8 C-6.33 7.34 -6.66 6.68 -7 6 C-7.66 6 -8.32 6 -9 6 C-9.33 6.66 -9.66 7.32 -10 8 C-9.812 5.688 -9.812 5.688 -9 3 C-5.68 0.398 -4.307 0 0 0 Z " fill="#6B9B7F" transform="translate(54,86)"/>
<path d="M0 0 C1.35 4.05 0.621 6.792 0 11 C-1.65 10.67 -3.3 10.34 -5 10 C-5.33 8.35 -5.66 6.7 -6 5 C-2.25 2 -2.25 2 0 2 C0 1.34 0 0.68 0 0 Z " fill="#71A9C8" transform="translate(114,69)"/>
<path d="M0 0 C0.66 0.33 1.32 0.66 2 1 C2 2.32 2 3.64 2 5 C1.361 5.103 0.721 5.206 0.062 5.312 C-0.618 5.539 -1.299 5.766 -2 6 C-2.33 6.99 -2.66 7.98 -3 9 C-4.996 9.949 -4.996 9.949 -7.438 10.688 C-8.241 10.939 -9.044 11.19 -9.871 11.449 C-12 12 -12 12 -14 12 C-14 11.01 -14 10.02 -14 9 C-13.397 8.83 -12.793 8.66 -12.172 8.484 C-7.506 7.069 -4.09 5.991 -1 2 C-0.67 1.34 -0.34 0.68 0 0 Z " fill="#EFF7F1" transform="translate(112,101)"/>
<path d="M0 0 C1.444 0.144 2.888 0.289 4.375 0.438 C4.781 0.478 4.781 0.478 6.836 0.684 C9 1 9 1 11 2 C10.67 2.99 10.34 3.98 10 5 C9.34 5 8.68 5 8 5 C6.638 5.961 5.301 6.959 4 8 C2.68 5.36 1.36 2.72 0 0 Z " fill="#D1D7BB" transform="translate(50,69)"/>
<path d="M0 0 C6.75 1.625 6.75 1.625 9 5 C4.71 5 0.42 5 -4 5 C-2.68 3.35 -1.36 1.7 0 0 Z " fill="#55896E" transform="translate(44,20)"/>
<path d="M0 0 C1.98 0.495 1.98 0.495 12 3 C12 3.99 12 4.98 12 6 C2.405 5.405 2.405 5.405 -1 2 C-0.67 1.34 -0.34 0.68 0 0 Z " fill="#353D54" transform="translate(102,65)"/>
<path d="M0 0 C1.675 0.286 3.344 0.618 5 1 C5 2.65 5 4.3 5 6 C4.34 6.33 4.34 6.33 1 8 C-1 6 -1 6 -1.188 3.438 C-1 1 -1 1 0 0 Z " fill="#172139" transform="translate(61,30)"/>
<path d="M0 0 C1.32 0.66 2.64 1.32 4 2 C4 3.65 4 5.3 4 7 C2.35 7.33 0.7 7.66 -1 8 C-1.625 5.125 -1.625 5.125 -2 2 C-1.34 1.34 -0.68 0.68 0 0 Z " fill="#1C283D" transform="translate(45,30)"/>
<path d="M0 0 C-1.283 3.848 -3.296 5.053 -6.406 7.5 C-8 9 -8 9 -9 12 C-9.66 11.67 -10.32 11.34 -11 11 C-6.769 0 -6.769 0 0 0 Z " fill="#8FC7A1" transform="translate(64,20)"/>
<path d="M0 0 C3.344 0.557 6.033 1.352 9 3 C9 3.66 9 4.32 9 5 C9.66 5.33 10.32 5.66 11 6 C11 6.66 11 7.32 11 8 C5.333 6.682 3.336 4.513 0 0 Z " fill="#E8E9E9" transform="translate(96,59)"/>
<path d="M0 0 C0.99 0 1.98 0 3 0 C2.67 1.98 2.34 3.96 2 6 C1.67 5.34 1.34 4.68 1 4 C-0.98 4.165 -0.98 4.165 -11 5 C-10.67 4.34 -10.34 3.68 -10 3 C-7.715 2.367 -7.715 2.367 -4.938 1.875 C-4.018 1.707 -3.099 1.54 -2.152 1.367 C-1.442 1.246 -0.732 1.125 0 1 C0 0.67 0 0.34 0 0 Z " fill="#1A243B" transform="translate(52,23)"/>
<path d="M0 0 C0.33 0.99 0.66 1.98 1 3 C1.66 3 2.32 3 3 3 C3 6.3 3 9.6 3 13 C2.67 13.165 2.67 13.165 1 14 C0.67 9.38 0.34 4.76 0 0 Z " fill="#21253F" transform="translate(53,78)"/>
<path d="M0 0 C2.565 2.565 2.54 4.477 3 8 C1.68 7.67 0.36 7.34 -1 7 C-1.625 4.625 -1.625 4.625 -2 2 C-1.34 1.34 -0.68 0.68 0 0 Z " fill="#6CA7CA" transform="translate(86,45)"/>
<path d="M0 0 C0.66 0.165 0.66 0.165 4 1 C3.67 2.65 3.34 4.3 3 6 C1.68 5.67 0.36 5.34 -1 5 C-0.67 3.35 -0.34 1.7 0 0 Z " fill="#6FADCA" transform="translate(86,56)"/>
<path d="M0 0 C0.99 0.165 0.99 0.165 6 1 C6 1.33 6 1.66 6 2 C4.35 2 2.7 2 1 2 C1 3.65 1 5.3 1 7 C-0.875 7.625 -0.875 7.625 -3 8 C-3.66 7.34 -4.32 6.68 -5 6 C-4.01 5.67 -3.02 5.34 -2 5 C-0.812 2.438 -0.812 2.438 0 0 Z " fill="#8CCAA1" transform="translate(106,70)"/>
<path d="M0 0 C0.99 0.33 1.98 0.66 3 1 C2.01 2.32 1.02 3.64 0 5 C1.65 5.33 3.3 5.66 5 6 C5 6.33 5 6.66 5 7 C2.69 7 0.38 7 -2 7 C-2.33 6.01 -2.66 5.02 -3 4 C-1.562 1.812 -1.562 1.812 0 0 Z " fill="#364253" transform="translate(41,19)"/>
<path d="M0 0 C-0.99 1.32 -1.98 2.64 -3 4 C-5.468 2.848 -7.048 1.952 -9 0 C-5.522 -1.159 -3.541 -0.708 0 0 Z " fill="#E8E9E9" transform="translate(58,18)"/>
<path d="M0 0 C2 1.375 2 1.375 4 3 C4 3.66 4 4.32 4 5 C4.66 5 5.32 5 6 5 C5.67 5.99 5.34 6.98 5 8 C1.125 7.125 1.125 7.125 0 6 C-0.041 4 -0.043 2 0 0 Z " fill="#2E3148" transform="translate(68,94)"/>
<path d="M0 0 C0 0.99 0 1.98 0 3 C-3 5.188 -3 5.188 -6 7 C-6.99 6.34 -7.98 5.68 -9 5 C-6.03 3.35 -3.06 1.7 0 0 Z " fill="#1B293C" transform="translate(54,62)"/>
<path d="M0 0 C2.31 0.33 4.62 0.66 7 1 C7 1.99 7 2.98 7 4 C4.03 4 1.06 4 -2 4 C-1.34 2.68 -0.68 1.36 0 0 Z " fill="#EBEBEC" transform="translate(60,14)"/>
<path d="M0 0 C0 0.99 0 1.98 0 3 C-2.813 4.125 -2.813 4.125 -6 5 C-6.99 4.34 -7.98 3.68 -9 3 C-3.375 0 -3.375 0 0 0 Z " fill="#31364E" transform="translate(30,28)"/>
<path d="M0 0 C2 3.75 2 3.75 2 6 C-0.31 6 -2.62 6 -5 6 C-3.35 4.02 -1.7 2.04 0 0 Z " fill="#D3D8BD" transform="translate(80,105)"/>
<path d="M0 0 C2.31 0 4.62 0 7 0 C6.67 2.31 6.34 4.62 6 7 C5.67 5.68 5.34 4.36 5 3 C3.68 3 2.36 3 1 3 C0.67 2.01 0.34 1.02 0 0 Z " fill="#3F485A" transform="translate(49,91)"/>
<path d="M0 0 C0.99 0.33 1.98 0.66 3 1 C3 2.65 3 4.3 3 6 C1.68 5.67 0.36 5.34 -1 5 C-0.67 3.35 -0.34 1.7 0 0 Z " fill="#6FACCC" transform="translate(87,65)"/>
<path d="M0 0 C7.508 -0.369 7.508 -0.369 10 1.5 C10.165 1.747 10.165 1.747 11 3 C10.67 3.99 10.34 4.98 10 6 C9.278 5.361 8.556 4.721 7.812 4.062 C5.018 2.013 3.383 1.387 0 1 C0 0.67 0 0.34 0 0 Z " fill="#151C37" transform="translate(60,18)"/>
<path d="M0 0 C0.66 0 1.32 0 2 0 C2.33 2.97 2.66 5.94 3 9 C2.01 9 1.02 9 0 9 C0 6.03 0 3.06 0 0 Z " fill="#2E3249" transform="translate(55,93)"/>
<path d="M0 0 C0.402 0.01 0.402 0.01 2.438 0.062 C2.035 0.351 2.035 0.351 0 1.812 C-2.541 4.044 -3.214 4.807 -3.562 8.062 C-4.222 7.733 -4.882 7.403 -5.562 7.062 C-3.334 0.081 -3.334 0.081 0 0 Z " fill="#1E273C" transform="translate(78.5625,93.9375)"/>
<path d="M0 0 C0.99 0 1.98 0 3 0 C3.33 1.32 3.66 2.64 4 4 C3.34 4 2.68 4 2 4 C1.34 5.32 0.68 6.64 0 8 C0 5.36 0 2.72 0 0 Z " fill="#4F7869" transform="translate(18,43)"/>
<path d="M0 0 C1.32 0.33 2.64 0.66 4 1 C4 1.99 4 2.98 4 4 C1.69 4 -0.62 4 -3 4 C-2.01 2.68 -1.02 1.36 0 0 Z " fill="#85BA95" transform="translate(43,21)"/>
<path d="M0 0 C5.538 0.492 5.538 0.492 7.875 3.062 C8.061 3.382 8.061 3.382 9 5 C8.67 5.165 8.67 5.165 7 6 C7 5.34 7 4.68 7 4 C5.68 3.67 4.36 3.34 3 3 C3 2.34 3 1.68 3 1 C2.01 0.67 1.02 0.34 0 0 Z " fill="#7AB28F" transform="translate(61,19)"/>
<path d="M0 0 C1.32 0 2.64 0 4 0 C4 1.32 4 2.64 4 4 C2.35 3.67 0.7 3.34 -1 3 C-0.67 2.01 -0.34 1.02 0 0 Z " fill="#F5F5F4" transform="translate(50,94)"/>
<path d="M0 0 C1.875 0.25 1.875 0.25 4 1 C5.25 3.062 5.25 3.062 6 5 C3.562 4.188 3.562 4.188 1 3 C0.67 2.01 0.34 1.02 0 0 Z " fill="#1A2241" transform="translate(96,62)"/>
<path d="M0 0 C4 4.75 4 4.75 4 7 C2.68 7 1.36 7 0 7 C0 4.69 0 2.38 0 0 Z " fill="#78B58E" transform="translate(90,55)"/>
<path d="M0 0 C1.98 0 3.96 0 6 0 C6 1.65 6 3.3 6 5 C2.839 3.63 2.007 3.011 0 0 Z " fill="#E0E1E2" transform="translate(68,18)"/>
</svg>
